<svg width="16" height="16" viewBox="0 0 16 16" fill="none" xmlns="http://www.w3.org/2000/svg">
<path fill-rule="evenodd" clip-rule="evenodd" d="M11.648 2C12.0892 1.99998 12.5137 2.16854 12.8347 2.47119C13.1557 2.77385 13.3489 3.18772 13.3747 3.62813L13.3776 3.72961V11.8011C13.3776 11.8971 13.3536 11.9915 13.3078 12.0759C13.2621 12.1603 13.1959 12.2318 13.1155 12.2842C13.035 12.3365 12.9428 12.368 12.8471 12.3756C12.7514 12.3833 12.6554 12.3669 12.5676 12.328L12.4984 12.2923L10.9274 11.3249L9.35572 12.2923C9.27522 12.3418 9.1838 12.3707 9.0895 12.3765C8.9952 12.3823 8.90091 12.3649 8.81493 12.3257L8.75151 12.2923L7.17988 11.3249L5.60824 12.2923C5.52588 12.343 5.43207 12.3722 5.33548 12.3771C5.23888 12.382 5.1426 12.3626 5.05548 12.3206C4.96837 12.2785 4.89324 12.2153 4.83699 12.1366C4.78075 12.0579 4.74521 11.9663 4.73364 11.8703L4.72961 11.8011V8.34189H3.57654C3.43532 8.34187 3.29903 8.29002 3.1935 8.19619C3.08798 8.10235 3.02056 7.97305 3.00404 7.8328L3 7.76535V3.44134C2.99994 3.0754 3.13908 2.72314 3.38918 2.45601C3.63929 2.18888 3.98164 2.02689 4.34679 2.00288L4.44134 2H11.648ZM9.91842 7.18882H7.61228C7.45937 7.18882 7.31273 7.24956 7.20461 7.35768C7.09649 7.4658 7.03575 7.61244 7.03575 7.76535C7.03575 7.91826 7.09649 8.0649 7.20461 8.17302C7.31273 8.28114 7.45937 8.34189 7.61228 8.34189H9.91842C10.0713 8.34189 10.218 8.28114 10.3261 8.17302C10.4342 8.0649 10.495 7.91826 10.495 7.76535C10.495 7.61244 10.4342 7.4658 10.3261 7.35768C10.218 7.24956 10.0713 7.18882 9.91842 7.18882ZM4.44134 3.15307C4.36488 3.15307 4.29156 3.18344 4.2375 3.2375C4.18344 3.29156 4.15307 3.36488 4.15307 3.44134V7.18882H4.72961V3.44134C4.72961 3.36488 4.69923 3.29156 4.64517 3.2375C4.59111 3.18344 4.51779 3.15307 4.44134 3.15307ZM10.495 4.88268H7.61228C7.46533 4.88284 7.32399 4.93911 7.21714 5.03998C7.11029 5.14086 7.04599 5.27873 7.03738 5.42542C7.02876 5.57212 7.07649 5.71656 7.17081 5.82925C7.26512 5.94193 7.39891 6.01435 7.54483 6.03171L7.61228 6.03575H10.495C10.6419 6.03558 10.7832 5.97931 10.8901 5.87844C10.9969 5.77756 11.0612 5.63969 11.0699 5.493C11.0785 5.3463 11.0307 5.20186 10.9364 5.08917C10.8421 4.97649 10.7083 4.90407 10.5624 4.88671L10.495 4.88268Z" fill="white"/>
</svg>
