<svg width="16" height="16" viewBox="0 0 16 16" fill="none" xmlns="http://www.w3.org/2000/svg">
<path d="M4.25 8.5C5.49264 8.5 6.5 7.49264 6.5 6.25C6.5 5.00736 5.49264 4 4.25 4C3.00736 4 2 5.00736 2 6.25C2 7.49264 3.00736 8.5 4.25 8.5Z" fill="white"/>
<path d="M6.8125 9.75C5.9325 9.30312 4.96125 9.125 4.25 9.125C2.85687 9.125 0 9.97937 0 11.6875V12C0 12.5523 0.447715 13 1 13H4.18531C4.46266 13 4.6875 12.7752 4.6875 12.4978C4.6875 11.9041 4.9375 11.3088 5.375 10.8125C5.72406 10.4163 6.21281 10.0484 6.8125 9.75Z" fill="white"/>
<path d="M10.125 9.5C8.49781 9.5 5.25 10.505 5.25 12.5V13C5.25 13.5523 5.69772 14 6.25 14H14C14.5523 14 15 13.5523 15 13V12.5C15 10.505 11.7522 9.5 10.125 9.5Z" fill="white"/>
<path d="M10.125 8.5C11.6438 8.5 12.875 7.26878 12.875 5.75C12.875 4.23122 11.6438 3 10.125 3C8.60622 3 7.375 4.23122 7.375 5.75C7.375 7.26878 8.60622 8.5 10.125 8.5Z" fill="white"/>
</svg>
