<svg xmlns="http://www.w3.org/2000/svg" width="20" height="20" fill="none"><path fill="#fff" d="M10.048 16.666c-1.851 0-3.426-.648-4.722-1.945C4.029 13.425 3.38 11.851 3.382 10a6.55 6.55 0 0 1 1.177-3.78c.786-1.148 1.9-1.974 3.342-2.477a.82.82 0 0 1 .446-.047.64.64 0 0 1 .318.166.569.569 0 0 1 .16.317.743.743 0 0 1-.053.407 4.01 4.01 0 0 0-.235.81c-.048.274-.073.559-.072.854 0 1.485.517 2.745 1.553 3.78 1.035 1.036 2.295 1.553 3.78 1.553.388 0 .743-.041 1.065-.123.322-.083.596-.15.823-.2a.737.737 0 0 1 .332.008c.1.028.182.077.244.147.064.07.107.155.13.256a.608.608 0 0 1-.04.348c-.397 1.36-1.175 2.476-2.335 3.344-1.16.868-2.483 1.303-3.969 1.303Z"/></svg>