<svg width="16" height="16" viewBox="0 0 16 16" fill="none" xmlns="http://www.w3.org/2000/svg">
<path d="M9.70844 2.80261C9.61445 2.33579 9.20431 2 8.72812 2H7.27158C6.79528 2 6.38508 2.33594 6.2912 2.80291L6.09765 3.76564C5.80376 3.89658 5.5243 4.05744 5.26375 4.24564L4.32034 3.92829C3.87 3.7768 3.37524 3.96312 3.13668 4.37403L2.41385 5.61914C2.17351 6.03312 2.26026 6.55937 2.62076 6.8743L3.36113 7.52109C3.32826 7.83953 3.32826 8.16047 3.36113 8.47891L2.62086 9.12561C2.26032 9.44059 2.17359 9.96691 2.41402 10.3809L3.13727 11.6263C3.37582 12.037 3.87042 12.2233 4.32067 12.0719L5.26375 11.7549C5.5227 11.9415 5.8014 12.1029 6.09765 12.2344L6.2912 13.1971C6.38508 13.6641 6.79528 14 7.27158 14H8.72787C9.20417 14 9.61438 13.6641 9.70825 13.1971L9.9018 12.2344C10.1957 12.1034 10.4752 11.9426 10.7357 11.7544L11.6792 12.0718C12.1295 12.2232 12.6242 12.037 12.8628 11.6261L13.5859 10.3811C13.8264 9.96699 13.7396 9.44058 13.3789 9.12563L12.6383 8.47891C12.6712 8.16047 12.6712 7.83953 12.6383 7.52109L13.3786 6.87439C13.7391 6.55941 13.8259 6.03309 13.5854 5.61909L12.8622 4.37379C12.6237 3.96299 12.129 3.77673 11.6787 3.92815L10.7363 4.24509C10.4757 4.05708 10.1962 3.89641 9.90235 3.76564L9.70844 2.80261ZM7.99973 10.1818C7.41771 10.1818 6.85954 9.95195 6.44799 9.54278C6.03644 9.13361 5.80524 8.57865 5.80524 8C5.80524 7.42135 6.03644 6.86639 6.44799 6.45722C6.85954 6.04805 7.41771 5.81818 7.99973 5.81818C8.58174 5.81818 9.13992 6.04805 9.55146 6.45722C9.96301 6.86639 10.1942 7.42135 10.1942 8C10.1942 8.57865 9.96301 9.13361 9.55146 9.54278C9.13992 9.95195 8.58174 10.1818 7.99973 10.1818Z" fill="white"/>
</svg>
