<svg width="48" height="48" viewBox="0 0 48 48" fill="none" xmlns="http://www.w3.org/2000/svg">
<path d="M15 32C15.8333 32 16.542 31.7087 17.126 31.126C17.71 30.5433 18.0013 29.8347 18 29C17.9987 28.1653 17.7073 27.4573 17.126 26.876C16.5447 26.2947 15.836 26.0027 15 26C14.164 25.9973 13.456 26.2893 12.876 26.876C12.296 27.4627 12.004 28.1707 12 29C11.996 29.8293 12.288 30.538 12.876 31.126C13.464 31.714 14.172 32.0053 15 32ZM33 32C33.8333 32 34.542 31.7087 35.126 31.126C35.71 30.5433 36.0013 29.8347 36 29C35.9987 28.1653 35.7073 27.4573 35.126 26.876C34.5447 26.2947 33.836 26.0027 33 26C32.164 25.9973 31.456 26.2893 30.876 26.876C30.296 27.4627 30.004 28.1707 30 29C29.996 29.8293 30.288 30.538 30.876 31.126C31.464 31.714 32.172 32.0053 33 32ZM8 42C7.43333 42 6.95867 41.808 6.576 41.424C6.19333 41.04 6.00133 40.5653 6 40V24.65C6 24.4167 6.01667 24.192 6.05 23.976C6.08333 23.76 6.13333 23.5513 6.2 23.35L10.15 12C10.35 11.4 10.7087 10.9167 11.226 10.55C11.7433 10.1833 12.3347 10 13 10H22.2C22.7667 10 23.242 10.192 23.626 10.576C24.01 10.96 24.2013 11.4347 24.2 12C24.1987 12.5653 24.0073 13.0407 23.626 13.426C23.2447 13.8113 22.7693 14.0027 22.2 14H13.7L11.6 20H27.1C28.2667 21.2667 29.6167 22.25 31.15 22.95C32.6833 23.65 34.3 24 36 24C36.6333 24 37.25 23.95 37.85 23.85C38.45 23.75 39.0333 23.6167 39.6 23.45C40.1667 23.2833 40.7087 23.3587 41.226 23.676C41.7433 23.9933 42.0013 24.4347 42 25V40C42 40.5667 41.808 41.042 41.424 41.426C41.04 41.81 40.5653 42.0013 40 42H38C37.4333 42 36.9587 41.808 36.576 41.424C36.1933 41.04 36.0013 40.5653 36 40V38H12V40C12 40.5667 11.808 41.042 11.424 41.426C11.04 41.81 10.5653 42.0013 10 42H8ZM36 15C36.8333 15 37.542 14.7087 38.126 14.126C38.71 13.5433 39.0013 12.8347 39 12C38.9987 11.1653 38.7073 10.4573 38.126 9.876C37.5447 9.29467 36.836 9.00267 36 9C35.164 8.99733 34.456 9.28933 33.876 9.876C33.296 10.4627 33.004 11.1707 33 12C32.996 12.8293 33.288 13.538 33.876 14.126C34.464 14.714 35.172 15.0053 36 15ZM35.7 20C35.4 20 35.1333 19.9087 34.9 19.726C34.6667 19.5433 34.5167 19.3013 34.45 19L34.1 17.65C33.7333 17.5167 33.3753 17.35 33.026 17.15C32.6767 16.95 32.3513 16.7167 32.05 16.45L30.7 16.9C30.4333 17 30.1587 16.992 29.876 16.876C29.5933 16.76 29.368 16.568 29.2 16.3L28.9 15.75C28.7333 15.4833 28.6753 15.2 28.726 14.9C28.7767 14.6 28.918 14.35 29.15 14.15L30.15 13.2C30.0833 12.8 30.05 12.4 30.05 12C30.05 11.6 30.0833 11.2 30.15 10.8L29.15 9.9C28.9167 9.7 28.7753 9.45 28.726 9.15C28.6767 8.85 28.7347 8.56667 28.9 8.3L29.25 7.75C29.4167 7.48333 29.6333 7.3 29.9 7.2C30.1667 7.1 30.4333 7.08333 30.7 7.15L32 7.55C32.3 7.28333 32.6253 7.05 32.976 6.85C33.3267 6.65 33.7013 6.48333 34.1 6.35L34.45 5C34.5167 4.7 34.6667 4.45867 34.9 4.276C35.1333 4.09333 35.4 4.00133 35.7 4H36.3C36.6 4 36.8667 4.092 37.1 4.276C37.3333 4.46 37.4833 4.70133 37.55 5L37.9 6.3C38.3 6.46667 38.6753 6.65 39.026 6.85C39.3767 7.05 39.7013 7.28333 40 7.55L41.3 7.2C41.5667 7.13333 41.8333 7.15 42.1 7.25C42.3667 7.35 42.5833 7.53333 42.75 7.8L43.1 8.3C43.2667 8.56667 43.3253 8.85 43.276 9.15C43.2267 9.45 43.0847 9.7 42.85 9.9L41.9 10.8C41.9667 11.2 42.0087 11.6087 42.026 12.026C42.0433 12.4433 42.0013 12.8513 41.9 13.25L42.85 14.15C43.0833 14.35 43.2253 14.6 43.276 14.9C43.3267 15.2 43.268 15.4833 43.1 15.75L42.8 16.25C42.6333 16.5167 42.4087 16.7 42.126 16.8C41.8433 16.9 41.568 16.9167 41.3 16.85L40 16.45C39.7 16.7167 39.3667 16.95 39 17.15C38.6333 17.35 38.2667 17.5167 37.9 17.65L37.55 19C37.4833 19.3 37.3333 19.542 37.1 19.726C36.8667 19.91 36.6 20.0013 36.3 20H35.7Z" fill="#0069D0"/>
</svg>
