<svg width="24" height="24" viewBox="0 0 24 24" fill="none" xmlns="http://www.w3.org/2000/svg">
<path d="M19.75 4C20.3467 4 20.919 4.23705 21.341 4.65901C21.7629 5.08097 22 5.65326 22 6.25V17.75C22 18.0455 21.9418 18.3381 21.8287 18.611C21.7157 18.884 21.5499 19.1321 21.341 19.341C21.1321 19.5499 20.884 19.7157 20.611 19.8287C20.3381 19.9418 20.0455 20 19.75 20H4.25C3.95453 20 3.66194 19.9418 3.38896 19.8287C3.11598 19.7157 2.86794 19.5499 2.65901 19.341C2.45008 19.1321 2.28434 18.884 2.17127 18.611C2.0582 18.3381 2 18.0455 2 17.75V6.25C2 5.65326 2.23705 5.08097 2.65901 4.65901C3.08097 4.23705 3.65326 4 4.25 4H19.75ZM8 9C7.20435 9 6.44129 9.31607 5.87868 9.87868C5.31607 10.4413 5 11.2044 5 12C5 12.7956 5.31607 13.5587 5.87868 14.1213C6.44129 14.6839 7.20435 15 8 15C8.79565 15 9.55871 14.6839 10.1213 14.1213C10.6839 13.5587 11 12.7956 11 12C11 11.2044 10.6839 10.4413 10.1213 9.87868C9.55871 9.31607 8.79565 9 8 9ZM13.25 13C13.0511 13 12.8603 13.079 12.7197 13.2197C12.579 13.3603 12.5 13.5511 12.5 13.75C12.5 13.9489 12.579 14.1397 12.7197 14.2803C12.8603 14.421 13.0511 14.5 13.25 14.5H17.75C17.9489 14.5 18.1397 14.421 18.2803 14.2803C18.421 14.1397 18.5 13.9489 18.5 13.75C18.5 13.5511 18.421 13.3603 18.2803 13.2197C18.1397 13.079 17.9489 13 17.75 13H13.25ZM8 10.5C8.39782 10.5 8.77936 10.658 9.06066 10.9393C9.34196 11.2206 9.5 11.6022 9.5 12C9.5 12.3978 9.34196 12.7794 9.06066 13.0607C8.77936 13.342 8.39782 13.5 8 13.5C7.60218 13.5 7.22064 13.342 6.93934 13.0607C6.65804 12.7794 6.5 12.3978 6.5 12C6.5 11.6022 6.65804 11.2206 6.93934 10.9393C7.22064 10.658 7.60218 10.5 8 10.5ZM13.25 9.5C13.0511 9.5 12.8603 9.57902 12.7197 9.71967C12.579 9.86032 12.5 10.0511 12.5 10.25C12.5 10.4489 12.579 10.6397 12.7197 10.7803C12.8603 10.921 13.0511 11 13.25 11H17.75C17.9489 11 18.1397 10.921 18.2803 10.7803C18.421 10.6397 18.5 10.4489 18.5 10.25C18.5 10.0511 18.421 9.86032 18.2803 9.71967C18.1397 9.57902 17.9489 9.5 17.75 9.5H13.25Z" fill="#0069D0"/>
</svg>
