<svg width="48" height="48" viewBox="0 0 48 48" fill="none" xmlns="http://www.w3.org/2000/svg">
<path d="M25.6246 2.72202C24.5903 2.26235 23.4097 2.26235 22.3754 2.72202L8.37545 8.94424C6.93094 9.58625 6 11.0187 6 12.5995V22C6 32.7591 13.2156 42.8418 23.0569 45.7458C23.6724 45.9274 24.3276 45.9274 24.9431 45.7458C34.7844 42.8418 42 32.7591 42 22V12.5995C42 11.0187 41.0691 9.58625 39.6246 8.94425L25.6246 2.72202ZM24 14C26.8 14 29.6 16.2 29.6 19V22C30.8 22 32 23.2 32 24.6V31.6C32 32.8 30.8 34 29.4 34H18.4C17.2 34 16 32.8 16 31.4V24.4C16 23.2 17.2 22 18.4 22V19C18.4 16.2 21.2 14 24 14ZM24 16.4C22.4 16.4 21 17.4 21 19V22H27V19C27 17.4 25.6 16.4 24 16.4Z" fill="#0069D0"/>
</svg>
