<svg width="20" height="20" viewBox="0 0 20 20" fill="none" xmlns="http://www.w3.org/2000/svg">
<path d="M2.96745 16.199C2.4793 15.7108 2.4793 14.9194 2.96745 14.4312L14.5326 2.86612C15.0207 2.37796 15.8122 2.37796 16.3003 2.86612C16.7885 3.35427 16.7885 4.14573 16.3003 4.63388L4.73522 16.199C4.24707 16.6871 3.45561 16.6871 2.96745 16.199Z" fill="white"/>
<path d="M2.86612 2.86668C3.35427 2.37852 4.14573 2.37852 4.63388 2.86668L16.199 14.4318C16.6871 14.9199 16.6871 15.7114 16.199 16.1995C15.7108 16.6877 14.9194 16.6877 14.4312 16.1995L2.86612 4.63445C2.37796 4.14629 2.37796 3.35483 2.86612 2.86668Z" fill="white"/>
</svg>
