<svg width="16" height="16" viewBox="0 0 16 16" fill="none" xmlns="http://www.w3.org/2000/svg">
<path d="M2 13.22V6.44043C2 6.24075 2.04505 6.05174 2.13514 5.87338C2.22524 5.69503 2.34938 5.54813 2.50757 5.43269L6.73864 2.25193C6.96021 2.08398 7.21321 2 7.49764 2C7.78207 2 8.03664 2.08398 8.26136 2.25193L12.4924 5.43191C12.6511 5.54735 12.7753 5.69451 12.8649 5.87338C12.955 6.05174 13 6.24075 13 6.44043V13.22C13 13.4291 12.9217 13.6113 12.7651 13.7668C12.6085 13.9223 12.4249 14 12.2143 14H9.55543C9.37524 14 9.22438 13.9397 9.10286 13.819C8.98133 13.6979 8.92057 13.5481 8.92057 13.3698V9.65005C8.92057 9.47169 8.85981 9.3222 8.73829 9.20156C8.61624 9.0804 8.46538 9.01982 8.28571 9.01982H6.71429C6.53462 9.01982 6.38402 9.0804 6.2625 9.20156C6.14045 9.3222 6.07943 9.47169 6.07943 9.65005V13.3706C6.07943 13.5489 6.01867 13.6984 5.89714 13.819C5.77562 13.9397 5.62502 14 5.44536 14H2.78571C2.57514 14 2.39155 13.9223 2.23493 13.7668C2.07831 13.6113 2 13.4291 2 13.22Z" fill="white"/>
</svg>
