<svg width="20" height="20" viewBox="0 0 20 20" fill="none" xmlns="http://www.w3.org/2000/svg">
<path d="M10 1.66504C14.6033 1.66504 18.335 5.39671 18.335 10C18.335 14.6025 14.6033 18.3334 10 18.3334C5.39667 18.3334 1.66667 14.6025 1.66667 10C1.66583 5.39671 5.39667 1.66504 10 1.66504ZM9.99667 8.54004C9.79244 8.54032 9.59543 8.61558 9.44304 8.75153C9.29065 8.88749 9.19348 9.07467 9.17 9.27754L9.16417 9.37421L9.1675 13.9592L9.1725 14.0559C9.19579 14.2591 9.29303 14.4467 9.44571 14.5829C9.59839 14.7191 9.79583 14.7943 10.0004 14.7943C10.205 14.7943 10.4024 14.7191 10.5551 14.5829C10.7078 14.4467 10.805 14.2591 10.8283 14.0559L10.8333 13.9584L10.83 9.37337L10.8242 9.27587C10.8001 9.07317 10.7024 8.88636 10.5497 8.75088C10.3971 8.6154 10.2 8.54067 9.99583 8.54087M10 5.41671C9.7234 5.41671 9.45813 5.52658 9.26255 5.72217C9.06696 5.91775 8.95708 6.18302 8.95708 6.45962C8.95708 6.73622 9.06696 7.00149 9.26255 7.19708C9.45813 7.39266 9.7234 7.50254 10 7.50254C10.2766 7.50254 10.5419 7.39266 10.7375 7.19708C10.933 7.00149 11.0429 6.73622 11.0429 6.45962C11.0429 6.18302 10.933 5.91775 10.7375 5.72217C10.5419 5.52658 10.2766 5.41671 10 5.41671Z" fill="white"/>
</svg>
