<svg width="20" height="20" viewBox="0 0 20 20" fill="none" xmlns="http://www.w3.org/2000/svg">
<path d="M10.7196 3C11.5071 3.0021 11.9067 3.0063 12.2518 3.0161L12.3876 3.021C12.5444 3.0266 12.6991 3.0336 12.886 3.042C13.6308 3.077 14.1389 3.1946 14.5848 3.36749C15.0468 3.54529 15.436 3.78608 15.8252 4.17457C16.1812 4.52438 16.4566 4.94768 16.6322 5.41494C16.8051 5.86083 16.9227 6.36902 16.9577 7.1145C16.9661 7.3007 16.9731 7.45539 16.9787 7.61289L16.9829 7.74869C16.9934 8.09308 16.9976 8.49277 16.999 9.28025L16.9997 9.80244V10.7194C17.0014 11.23 16.996 11.7406 16.9836 12.251L16.9794 12.3868C16.9738 12.5443 16.9668 12.699 16.9584 12.8852C16.9234 13.6306 16.8044 14.1381 16.6322 14.5847C16.4566 15.052 16.1812 15.4753 15.8252 15.8251C15.4754 16.1812 15.0521 16.4566 14.5848 16.6322C14.1389 16.8051 13.6308 16.9227 12.886 16.9577L12.3876 16.9787L12.2518 16.9829C11.9067 16.9927 11.5071 16.9976 10.7196 16.999L10.1974 16.9997H9.28118C8.77039 17.0015 8.2596 16.9961 7.74896 16.9836L7.61317 16.9794C7.447 16.9731 7.28087 16.9658 7.11479 16.9577C6.37003 16.9227 5.86185 16.8051 5.41528 16.6322C4.94828 16.4565 4.52523 16.1811 4.17564 15.8251C3.81932 15.4754 3.54365 15.052 3.36788 14.5847C3.19499 14.1388 3.07739 13.6306 3.0424 12.8852L3.0214 12.3868L3.0179 12.251C3.00499 11.7406 2.99916 11.23 3.0004 10.7194V9.28025C2.99846 8.76968 3.00359 8.25911 3.0158 7.74869L3.0207 7.61289C3.0263 7.45539 3.0333 7.3007 3.0417 7.1145C3.07669 6.36902 3.19429 5.86153 3.36718 5.41494C3.54336 4.94749 3.81951 4.52417 4.17634 4.17457C4.52573 3.81866 4.94853 3.54324 5.41528 3.36749C5.86185 3.1946 6.36933 3.077 7.11479 3.042C7.30098 3.0336 7.45637 3.0266 7.61317 3.021L7.74896 3.0168C8.25937 3.00436 8.76992 2.999 9.28048 3.0007L10.7196 3ZM10 6.49992C9.07183 6.49992 8.18164 6.86866 7.5253 7.52502C6.86895 8.18138 6.50022 9.0716 6.50022 9.99983C6.50022 10.9281 6.86895 11.8183 7.5253 12.4746C8.18164 13.131 9.07183 13.4997 10 13.4997C10.9283 13.4997 11.8184 13.131 12.4748 12.4746C13.1311 11.8183 13.4999 10.9281 13.4999 9.99983C13.4999 9.0716 13.1311 8.18138 12.4748 7.52502C11.8184 6.86866 10.9283 6.49992 10 6.49992ZM10 7.89988C10.2758 7.89984 10.5489 7.95411 10.8037 8.0596C11.0585 8.16509 11.29 8.31973 11.485 8.5147C11.68 8.70966 11.8347 8.94113 11.9403 9.19589C12.0459 9.45065 12.1002 9.72371 12.1003 9.99948C12.1003 10.2752 12.0461 10.5483 11.9406 10.8031C11.8351 11.0579 11.6805 11.2894 11.4855 11.4845C11.2905 11.6795 11.0591 11.8342 10.8043 11.9398C10.5496 12.0454 10.2765 12.0997 10.0007 12.0998C9.44382 12.0998 8.9097 11.8785 8.5159 11.4847C8.12209 11.0909 7.90085 10.5568 7.90085 9.99983C7.90085 9.44289 8.12209 8.90876 8.5159 8.51494C8.9097 8.12113 9.44382 7.89988 10.0007 7.89988M13.6756 5.44994C13.4435 5.44994 13.221 5.54213 13.0569 5.70622C12.8928 5.87031 12.8006 6.09286 12.8006 6.32492C12.8006 6.55698 12.8928 6.77953 13.0569 6.94362C13.221 7.10771 13.4435 7.1999 13.6756 7.1999C13.9076 7.1999 14.1302 7.10771 14.2942 6.94362C14.4583 6.77953 14.5505 6.55698 14.5505 6.32492C14.5505 6.09286 14.4583 5.87031 14.2942 5.70622C14.1302 5.54213 13.9076 5.44994 13.6756 5.44994Z" fill="white"/>
</svg>
