<svg width="16" height="16" viewBox="0 0 16 16" fill="none" xmlns="http://www.w3.org/2000/svg">
<path d="M3 13.1C3 13.3387 3.09877 13.5676 3.27459 13.7364C3.4504 13.9052 3.68886 14 3.9375 14H4.875V2H3.9375C3.68886 2 3.4504 2.09482 3.27459 2.2636C3.09877 2.43239 3 2.66131 3 2.9V13.1ZM5.5 2V14H11.75C12.0815 14 12.3995 13.8736 12.6339 13.6485C12.8683 13.4235 13 13.1183 13 12.8V3.2C13 2.88174 12.8683 2.57652 12.6339 2.35147C12.3995 2.12643 12.0815 2 11.75 2H5.5ZM9.875 6.875C9.875 7.24779 9.57279 7.55 9.2 7.55H7.425C7.05221 7.55 6.75 7.24779 6.75 6.875C6.75 6.50221 7.05221 6.2 7.425 6.2H9.2C9.57279 6.2 9.875 6.50221 9.875 6.875ZM11.75 4.925C11.75 5.29779 11.4478 5.6 11.075 5.6H7.425C7.05221 5.6 6.75 5.29779 6.75 4.925C6.75 4.55221 7.05221 4.25 7.425 4.25H11.075C11.4478 4.25 11.75 4.55221 11.75 4.925Z" fill="white"/>
</svg>
