<svg width="16" height="16" viewBox="0 0 16 16" fill="none" xmlns="http://www.w3.org/2000/svg">
<path fill-rule="evenodd" clip-rule="evenodd" d="M3.9999 1.60001C3.57556 1.60001 3.16859 1.76858 2.86853 2.06864C2.56847 2.36869 2.3999 2.77566 2.3999 3.20001V14.4L5.1999 12.8L7.9999 14.4L10.7999 12.8L13.5999 14.4V3.20001C13.5999 2.77566 13.4313 2.36869 13.1313 2.06864C12.8312 1.76858 12.4242 1.60001 11.9999 1.60001H3.9999ZM5.9999 4.00001C5.68164 4.00001 5.37642 4.12643 5.15137 4.35148C4.92633 4.57652 4.7999 4.88175 4.7999 5.20001C4.7999 5.51827 4.92633 5.82349 5.15137 6.04853C5.37642 6.27358 5.68164 6.40001 5.9999 6.40001C6.31816 6.40001 6.62339 6.27358 6.84843 6.04853C7.07347 5.82349 7.1999 5.51827 7.1999 5.20001C7.1999 4.88175 7.07347 4.57652 6.84843 4.35148C6.62339 4.12643 6.31816 4.00001 5.9999 4.00001ZM10.9655 4.23441C10.8155 4.08443 10.612 4.00018 10.3999 4.00018C10.1878 4.00018 9.98432 4.08443 9.8343 4.23441L5.0343 9.03441C4.95789 9.1082 4.89695 9.19648 4.85502 9.29408C4.81309 9.39169 4.79103 9.49666 4.7901 9.60289C4.78918 9.70911 4.80942 9.81445 4.84964 9.91277C4.88987 10.0111 4.94927 10.1004 5.02439 10.1755C5.0995 10.2506 5.18882 10.31 5.28714 10.3503C5.38546 10.3905 5.4908 10.4107 5.59702 10.4098C5.70325 10.4089 5.80822 10.3868 5.90583 10.3449C6.00343 10.303 6.0917 10.242 6.1655 10.1656L10.9655 5.36561C11.1155 5.21558 11.1997 5.01214 11.1997 4.80001C11.1997 4.58787 11.1155 4.38443 10.9655 4.23441ZM9.9999 8.00001C9.68164 8.00001 9.37642 8.12643 9.15137 8.35148C8.92633 8.57652 8.7999 8.88175 8.7999 9.20001C8.7999 9.51827 8.92633 9.82349 9.15137 10.0485C9.37642 10.2736 9.68164 10.4 9.9999 10.4C10.3182 10.4 10.6234 10.2736 10.8484 10.0485C11.0735 9.82349 11.1999 9.51827 11.1999 9.20001C11.1999 8.88175 11.0735 8.57652 10.8484 8.35148C10.6234 8.12643 10.3182 8.00001 9.9999 8.00001Z" fill="white"/>
</svg>
