<svg width="40" height="40" viewBox="0 0 40 40" fill="none" xmlns="http://www.w3.org/2000/svg">
<path d="M20.0003 7.91699C21.1503 7.91699 22.0837 8.85033 22.0837 10.0003V17.917H30.0003C30.5529 17.917 31.0828 18.1365 31.4735 18.5272C31.8642 18.9179 32.0837 19.4478 32.0837 20.0003C32.0837 20.5529 31.8642 21.0828 31.4735 21.4735C31.0828 21.8642 30.5529 22.0837 30.0003 22.0837H22.0837V30.0003C22.0837 30.5529 21.8642 31.0828 21.4735 31.4735C21.0828 31.8642 20.5529 32.0837 20.0003 32.0837C19.4478 32.0837 18.9179 31.8642 18.5272 31.4735C18.1365 31.0828 17.917 30.5529 17.917 30.0003V22.0837H10.0003C9.44779 22.0837 8.91789 21.8642 8.52719 21.4735C8.13649 21.0828 7.91699 20.5529 7.91699 20.0003C7.91699 19.4478 8.13649 18.9179 8.52719 18.5272C8.91789 18.1365 9.44779 17.917 10.0003 17.917H17.917V10.0003C17.917 8.85033 18.8503 7.91699 20.0003 7.91699Z" fill="white"/>
</svg>
