<svg width="48" height="48" viewBox="0 0 48 48" fill="none" xmlns="http://www.w3.org/2000/svg">
<path fill-rule="evenodd" clip-rule="evenodd" d="M32.2737 9.45551L35.9337 13.1155C41.3117 18.4955 43.9997 21.1835 43.9997 24.5235C43.9997 27.8655 41.3117 30.5535 35.9337 35.9315C30.5537 41.3115 27.8657 43.9995 24.5237 43.9995C21.1837 43.9995 18.4937 41.3115 13.1157 35.9335L9.45573 32.2735C6.36573 29.1815 4.81973 27.6375 4.24573 25.6315C3.66973 23.6255 4.16173 21.4955 5.14573 17.2375L5.71173 14.7815C6.53773 11.1975 6.95173 9.40551 8.17773 8.17751C9.40373 6.94951 11.1977 6.53751 14.7817 5.71151L17.2377 5.14351C21.4977 4.16151 23.6257 3.66951 25.6317 4.24351C27.6377 4.81951 29.1837 6.36551 32.2737 9.45551ZM22.2917 28.6555C20.9457 27.3115 20.9557 25.3795 21.7617 23.8495C21.5622 23.5613 21.4699 23.2123 21.5009 22.8631C21.5319 22.514 21.6841 22.1867 21.9313 21.9381C22.1785 21.6895 22.5049 21.5353 22.8539 21.5023C23.2029 21.4694 23.5524 21.5596 23.8417 21.7575C24.5217 21.3975 25.2677 21.2055 26.0117 21.2135C26.4096 21.2172 26.7896 21.3788 27.0683 21.6628C27.347 21.9467 27.5014 22.3297 27.4977 22.7275C27.494 23.1253 27.3324 23.5054 27.0485 23.7841C26.7646 24.0628 26.3816 24.2172 25.9837 24.2135C25.5206 24.2306 25.083 24.4297 24.7657 24.7675C23.9917 25.5415 24.1937 26.3175 24.4117 26.5355C24.6317 26.7535 25.4057 26.9555 26.1797 26.1815C27.7477 24.6135 30.4557 24.0935 32.1897 25.8275C33.5357 27.1735 33.5257 29.1055 32.7197 30.6355C32.918 30.9238 33.0093 31.2723 32.9777 31.6208C32.9462 31.9692 32.7939 32.2957 32.5471 32.5437C32.3002 32.7917 31.9745 32.9456 31.6262 32.9788C31.2779 33.012 30.929 32.9224 30.6397 32.7255C29.7423 33.2179 28.7012 33.382 27.6957 33.1895C27.3059 33.1094 26.9638 32.8777 26.7447 32.5454C26.5257 32.2131 26.4476 31.8074 26.5277 31.4175C26.6078 31.0276 26.8395 30.6856 27.1718 30.4665C27.5041 30.2475 27.9099 30.1694 28.2997 30.2495C28.6537 30.3235 29.2257 30.2075 29.7157 29.7175C30.4897 28.9415 30.2877 28.1675 30.0697 27.9495C29.8497 27.7315 29.0757 27.5295 28.3017 28.3035C26.7337 29.8715 24.0257 30.3915 22.2917 28.6555ZM20.0397 20.5855C20.4111 20.214 20.7057 19.773 20.9066 19.2876C21.1076 18.8023 21.2109 18.2821 21.2108 17.7568C21.2107 17.2315 21.1072 16.7114 20.9061 16.2261C20.705 15.7408 20.4102 15.2999 20.0387 14.9285C19.6672 14.5571 19.2262 14.2626 18.7409 14.0616C18.2555 13.8607 17.7353 13.7573 17.21 13.7574C16.6847 13.7575 16.1646 13.8611 15.6793 14.0622C15.194 14.2633 14.7531 14.558 14.3817 14.9295C13.6317 15.6798 13.2104 16.6973 13.2106 17.7582C13.2108 18.8191 13.6324 19.8365 14.3827 20.5865C15.133 21.3365 16.1505 21.7578 17.2114 21.7576C18.2723 21.7574 19.2897 21.3358 20.0397 20.5855Z" fill="#0069D0"/>
</svg>
