<svg width="16" height="16" viewBox="0 0 16 16" fill="none" xmlns="http://www.w3.org/2000/svg">
<path d="M12.8 5.44444V4.22222C12.8 3.54817 12.2618 3 11.6 3H3.8C2.8076 3 2 3.82256 2 4.83333V12.1667C2 13.5117 3.0764 14 3.8 14H12.8C13.4618 14 14 13.4518 14 12.7778V6.66667C14 5.99261 13.4618 5.44444 12.8 5.44444ZM11.6 10.9444H10.4V8.5H11.6V10.9444ZM3.8 5.44444C3.64551 5.43741 3.49964 5.36995 3.39277 5.25611C3.28589 5.14228 3.22624 4.99084 3.22624 4.83333C3.22624 4.67583 3.28589 4.52439 3.39277 4.41056C3.49964 4.29672 3.64551 4.22926 3.8 4.22222H11.6V5.44444H3.8Z" fill="white"/>
</svg>
