<svg width="20" height="20" viewBox="0 0 20 20" fill="none" xmlns="http://www.w3.org/2000/svg">
<path d="M2.5 5C2.5 4.30964 2.97969 3.75 3.57143 3.75H16.4286C17.0203 3.75 17.5 4.30964 17.5 5C17.5 5.69036 17.0203 6.25 16.4286 6.25H3.57143C2.9797 6.25 2.5 5.69036 2.5 5Z" fill="white"/>
<path d="M2.5 10C2.5 9.30964 2.97969 8.75 3.57143 8.75H16.4286C17.0203 8.75 17.5 9.30964 17.5 10C17.5 10.6904 17.0203 11.25 16.4286 11.25H3.57143C2.9797 11.25 2.5 10.6904 2.5 10Z" fill="white"/>
<path d="M2.5 15C2.5 14.3096 2.97969 13.75 3.57143 13.75H16.4286C17.0203 13.75 17.5 14.3096 17.5 15C17.5 15.6904 17.0203 16.25 16.4286 16.25H3.57143C2.9797 16.25 2.5 15.6904 2.5 15Z" fill="white"/>
</svg>
