<svg width="48" height="48" viewBox="0 0 48 48" fill="none" xmlns="http://www.w3.org/2000/svg">
<path d="M30 16.5714H39V11.2857H30V16.5714ZM3 16.5714V9.96429C3 7.77567 5.01562 6 7.5 6H40.5C42.9844 6 45 7.77567 45 9.96429V17.8929C45 20.0815 42.9844 21.8571 40.5 21.8571H7.5C5.01562 21.8571 3 20.0815 3 17.8929V16.5714ZM18 37.7143H39V32.4286H18V37.7143ZM3 37.7143V31.1071C3 28.9185 5.01562 27.1429 7.5 27.1429H40.5C42.9844 27.1429 45 28.9185 45 31.1071V39.0357C45 41.2243 42.9844 43 40.5 43H7.5C5.01562 43 3 41.2243 3 39.0357V37.7143Z" fill="#0069D0"/>
</svg>
