<svg width="24" height="24" viewBox="0 0 24 24" fill="none" xmlns="http://www.w3.org/2000/svg">
<path d="M15.0205 8.28571H19.5512V5.64286H15.0205V8.28571ZM1.42871 8.28571V4.98214C1.42871 3.88783 2.44338 3 3.69402 3H20.3063C21.5569 3 22.5716 3.88783 22.5716 4.98214V8.94643C22.5716 10.0407 21.5569 10.9286 20.3063 10.9286H3.69402C2.44338 10.9286 1.42871 10.0407 1.42871 8.94643V8.28571ZM8.97973 18.8571H19.5512V16.2143H8.97973V18.8571ZM1.42871 18.8571V15.5536C1.42871 14.4593 2.44338 13.5714 3.69402 13.5714H20.3063C21.5569 13.5714 22.5716 14.4593 22.5716 15.5536V19.5179C22.5716 20.6122 21.5569 21.5 20.3063 21.5H3.69402C2.44338 21.5 1.42871 20.6122 1.42871 19.5179V18.8571Z" fill="#0069D0"/>
</svg>
