<svg width="16" height="16" viewBox="0 0 16 16" fill="none" xmlns="http://www.w3.org/2000/svg">
<path fill-rule="evenodd" clip-rule="evenodd" d="M7.5 2V5.0324C7.5 5.2868 7.5 5.5346 7.52587 5.7386C7.55456 5.9684 7.62544 6.2306 7.82963 6.4484C8.03381 6.6662 8.27963 6.7418 8.49563 6.7724C8.68688 6.8 8.91862 6.8 9.15712 6.8H12V10.4C12 12.0968 12 12.9458 11.5056 13.4726C11.0117 14 10.2158 14 8.625 14H6.375C4.78425 14 3.98831 14 3.49444 13.4726C3 12.9458 3 12.0968 3 10.4V5.6C3 3.9032 3 3.0542 3.49444 2.5274C3.98831 2 4.78425 2 6.375 2H7.5ZM8.625 2.003V5C8.625 5.3 8.62612 5.4644 8.64075 5.5784V5.5826L8.64525 5.5832C8.75213 5.5988 8.90625 5.6 9.1875 5.6H11.9972C11.9916 5.3528 11.973 5.1896 11.9145 5.0378C11.829 4.8176 11.6664 4.6436 11.3407 4.2968L9.84675 2.7032C9.52163 2.3564 9.35906 2.1824 9.15206 2.0912C9.00975 2.0282 8.85675 2.009 8.625 2.003Z" fill="white"/>
</svg>
