<svg width="48" height="48" viewBox="0 0 48 48" fill="none" xmlns="http://www.w3.org/2000/svg">
<path d="M7.74053 4.34931C8.14389 3.94595 8.77133 3.88619 9.24939 4.19992L18.1308 10.1159C18.7956 10.5566 19.1915 11.3035 19.1915 12.1028V15.8077L25.9739 22.5902C28.4613 21.4697 31.494 21.9254 33.5332 23.972L42.9524 33.3912C44.3492 34.7881 44.3492 37.0588 42.9524 38.4631L38.4631 42.9524C37.0663 44.3492 34.7955 44.3492 33.3912 42.9524L23.972 33.5332C21.9254 31.4865 21.4697 28.4613 22.5902 25.9739L15.8077 19.1915H12.1028C11.3035 19.1915 10.5566 18.7956 10.1159 18.1308L4.19992 9.24939C3.88619 8.7788 3.94595 8.14388 4.34931 7.74052L7.74053 4.34931ZM18.5715 27.0196C18.1009 29.7759 18.7433 32.6891 20.5285 35.0271L13.4399 42.1233C11.3409 44.2222 7.93474 44.2222 5.83577 42.1233C3.7368 40.0243 3.7368 36.6181 5.83577 34.5192L15.9497 24.3978L18.579 27.0196H18.5715ZM31.1429 4.84978C32.6443 4.84978 34.0859 5.12615 35.408 5.63409C36.155 5.91793 36.2895 6.86658 35.7292 7.43427L31.494 11.6696C31.2699 11.8936 31.1429 12.1999 31.1429 12.5136V15.606C31.1429 16.2634 31.6807 16.8012 32.338 16.8012H35.4305C35.7442 16.8012 36.0504 16.6742 36.2745 16.4501L40.5098 12.2148C41.0775 11.6546 42.0261 11.7891 42.31 12.536C42.8179 13.8582 43.0943 15.2998 43.0943 16.8012C43.0943 20.0281 41.8095 22.9487 39.733 25.1L36.0654 21.4324C33.5929 18.9674 30.2017 18.0187 27.0196 18.564L22.7769 14.3213V12.1028L22.762 11.7293C22.7022 10.8031 22.4333 9.91419 21.9776 9.12241C24.1737 6.50803 27.4604 4.84978 31.1429 4.84231V4.84978Z" fill="#0069D0"/>
</svg>
