<svg width="20" height="20" viewBox="0 0 20 20" fill="none" xmlns="http://www.w3.org/2000/svg">
<path d="M10.125 9.375C10.7406 9.375 11.3501 9.25375 11.9188 9.01818C12.4875 8.78262 13.0043 8.43734 13.4396 8.00206C13.8748 7.56679 14.2201 7.05004 14.4557 6.48133C14.6913 5.91261 14.8125 5.30307 14.8125 4.6875C14.8125 4.07193 14.6913 3.46239 14.4557 2.89367C14.2201 2.32496 13.8748 1.80821 13.4396 1.37294C13.0043 0.937662 12.4875 0.592384 11.9188 0.356815C11.3501 0.121246 10.7406 -9.17273e-09 10.125 0C9.50943 -9.17273e-09 8.89989 0.121246 8.33117 0.356815C7.76246 0.592384 7.24571 0.937662 6.81044 1.37294C6.37516 1.80821 6.02988 2.32496 5.79431 2.89367C5.55875 3.46239 5.4375 4.07193 5.4375 4.6875C5.4375 5.30307 5.55875 5.91261 5.79431 6.48133C6.02988 7.05004 6.37516 7.56679 6.81044 8.00206C7.24571 8.43734 7.76246 8.78262 8.33117 9.01818C8.89989 9.25375 9.50943 9.375 10.125 9.375ZM8.96484 11.5625C5.11719 11.5625 2 14.6797 2 18.5273C2 19.168 2.51953 19.6875 3.16016 19.6875H17.0898C17.7305 19.6875 18.25 19.168 18.25 18.5273C18.25 14.6797 15.1328 11.5625 11.2852 11.5625H8.96484Z" fill="white"/>
</svg>
