<svg width="26" height="28" viewBox="0 0 26 28" fill="none" xmlns="http://www.w3.org/2000/svg">
<path d="M4.4 8.66669C5.14893 8.66667 5.88467 8.46952 6.53327 8.09504C7.18186 7.72056 7.72046 7.18196 8.09493 6.53336H23.6C24.1658 6.53336 24.7084 6.3086 25.1085 5.90852C25.5086 5.50844 25.7333 4.96582 25.7333 4.40002C25.7333 3.83423 25.5086 3.29161 25.1085 2.89153C24.7084 2.49145 24.1658 2.26669 23.6 2.26669H8.09493C7.72044 1.61813 7.18183 1.07956 6.53324 0.705116C5.88464 0.330672 5.14892 0.133545 4.4 0.133545C3.65108 0.133545 2.91535 0.330672 2.26676 0.705116C1.61816 1.07956 1.07956 1.61813 0.705063 2.26669H4.4V6.53336H0.705063C1.07953 7.18196 1.61813 7.72056 2.26672 8.09504C2.91532 8.46952 3.65106 8.66667 4.4 8.66669ZM2.57813 17.9552C2.37873 18.1551 2.26672 18.4259 2.26666 18.7083V26.8C2.26666 27.0829 2.37904 27.3542 2.57908 27.5543C2.77912 27.7543 3.05043 27.8667 3.33333 27.8667H6.53333C6.81623 27.8667 7.08754 27.7543 7.28758 27.5543C7.48762 27.3542 7.6 27.0829 7.6 26.8V25.7334H20.4V26.8C20.4 27.0829 20.5124 27.3542 20.7124 27.5543C20.9125 27.7543 21.1838 27.8667 21.4667 27.8667H24.6667C24.9496 27.8667 25.2209 27.7543 25.4209 27.5543C25.621 27.3542 25.7333 27.0829 25.7333 26.8V18.7083C25.7333 18.4259 25.6213 18.1551 25.4219 17.9552L23.6 16.1334L20.7115 11.3184C20.6165 11.16 20.4821 11.0289 20.3213 10.938C20.1605 10.8472 19.9788 10.7996 19.7941 10.8H8.20586C8.02152 10.8 7.84032 10.8477 7.67992 10.9386C7.51953 11.0294 7.38541 11.1603 7.29066 11.3184L4.4 16.1334L2.57813 17.9552ZM21.7525 17.2H6.24746L8.80746 12.9334H19.1925L21.7525 17.2ZM9.73333 21.0998V21.8934C9.73333 22.0631 9.6659 22.2259 9.54588 22.3459C9.42586 22.4659 9.26307 22.5334 9.09333 22.5334H5.04C4.87026 22.5334 4.70747 22.4659 4.58745 22.3459C4.46742 22.2259 4.4 22.0631 4.4 21.8934V20.1142C4.40004 20.0195 4.4211 19.926 4.46165 19.8404C4.5022 19.7548 4.56124 19.6793 4.6345 19.6193C4.70776 19.5593 4.79342 19.5163 4.88531 19.4934C4.9772 19.4705 5.07302 19.4683 5.16586 19.487L9.04853 20.2635C9.24167 20.3024 9.41539 20.4069 9.54021 20.5594C9.66504 20.7118 9.73327 20.9027 9.73333 21.0998ZM23.6 20.3744V21.8934C23.6 22.0631 23.5326 22.2259 23.4125 22.3459C23.2925 22.4659 23.1297 22.5334 22.96 22.5334H18.9067C18.7369 22.5334 18.5741 22.4659 18.4541 22.3459C18.3341 22.2259 18.2667 22.0631 18.2667 21.8934V20.9248C18.2667 20.777 18.318 20.6337 18.4117 20.5194C18.5054 20.4051 18.6358 20.3267 18.7808 20.2976L22.5781 19.5382C22.702 19.5132 22.8298 19.5161 22.9524 19.5465C23.075 19.577 23.1893 19.6343 23.2871 19.7143C23.3849 19.7943 23.4637 19.895 23.5178 20.0092C23.5719 20.1233 23.6 20.2481 23.6 20.3744Z" fill="white"/>
</svg>
