<svg width="24" height="24" viewBox="0 0 24 24" fill="none" xmlns="http://www.w3.org/2000/svg">
<path d="M20 4C20.5304 4 21.0391 4.21071 21.4142 4.58579C21.7893 4.96086 22 5.46957 22 6V18C22 18.5304 21.7893 19.0391 21.4142 19.4142C21.0391 19.7893 20.5304 20 20 20H4C3.46957 20 2.96086 19.7893 2.58579 19.4142C2.21071 19.0391 2 18.5304 2 18V6C2 5.46957 2.21071 4.96086 2.58579 4.58579C2.96086 4.21071 3.46957 4 4 4H20ZM11 14C11 13.4477 10.5523 13 10 13C9.44772 13 9 13.4477 9 14C9 14.5523 9.44772 15 10 15C10.5523 15 11 14.5523 11 14ZM19 14C19 13.4477 18.5523 13 18 13H14C13.4477 13 13 13.4477 13 14C13 14.5523 13.4477 15 14 15H18C18.5523 15 19 14.5523 19 14ZM7 10C7 9.44772 6.55228 9 6 9C5.44772 9 5 9.44772 5 10C5 10.5523 5.44772 11 6 11C6.55228 11 7 10.5523 7 10ZM19 10C19 9.44772 18.5523 9 18 9H10C9.44772 9 9 9.44772 9 10C9 10.5523 9.44772 11 10 11H18C18.5523 11 19 10.5523 19 10Z" fill="#0069D0"/>
</svg>
