<svg width="20" height="20" viewBox="0 0 20 20" fill="none" xmlns="http://www.w3.org/2000/svg">
<path fill-rule="evenodd" clip-rule="evenodd" d="M19.5413 4.81257C19.6796 4.34457 19.5413 4 18.8788 4H16.6913C16.1347 4 15.878 4.29743 15.7388 4.62571C15.7388 4.62571 14.6264 7.36514 13.0506 9.14457C12.5406 9.66057 12.3089 9.82429 12.0306 9.82429C11.8914 9.82429 11.6823 9.66057 11.6823 9.19171V4.81257C11.6823 4.25029 11.5289 4 11.0656 4H7.62567C7.27818 4 7.06902 4.26057 7.06902 4.50829C7.06902 5.04057 7.85734 5.164 7.93817 6.66229V9.91771C7.93817 10.6317 7.81067 10.7611 7.53234 10.7611C6.79069 10.7611 4.98656 8.00886 3.91575 4.85971C3.70826 4.24686 3.49826 4 2.93911 4H0.749984C0.124997 4 0 4.29743 0 4.62571C0 5.21029 0.741651 8.11429 3.45409 11.9551C5.26239 14.578 7.80817 16 10.1273 16C11.5181 16 11.6898 15.6846 11.6898 15.1403V13.1577C11.6898 12.526 11.8214 12.4 12.2622 12.4C12.5872 12.4 13.1431 12.5646 14.4414 13.8289C15.9247 15.328 16.1688 16 17.0038 16H19.1913C19.8163 16 20.1296 15.6846 19.9496 15.0606C19.7513 14.44 19.0429 13.5391 18.1038 12.4703C17.5938 11.8617 16.8288 11.206 16.5963 10.8777C16.2722 10.4569 16.3647 10.2691 16.5963 9.89457C16.5963 9.89457 19.2629 6.10086 19.5404 4.81257" fill="white"/>
</svg>
