<svg width="16" height="16" viewBox="0 0 16 16" fill="none" xmlns="http://www.w3.org/2000/svg">
<path d="M8 10.2105C5.2375 10.2105 3 11.3411 3 12.7368V13C3 13.5523 3.44772 14 4 14H12C12.5523 14 13 13.5523 13 13V12.7368C13 11.3411 10.7625 10.2105 8 10.2105ZM5.5 6.42105C5.5 7.09107 5.76339 7.73365 6.23223 8.20743C6.70107 8.6812 7.33696 8.94737 8 8.94737C8.66304 8.94737 9.29893 8.6812 9.76777 8.20743C10.2366 7.73365 10.5 7.09107 10.5 6.42105M7.6875 2C7.5 2 7.375 2.13263 7.375 2.31579V4.21053H6.75V2.63158C6.75 2.63158 5.34375 3.17474 5.34375 5C5.34375 5 4.875 5.08842 4.875 5.78947H11.125C11.0938 5.08842 10.6562 5 10.6562 5C10.6562 3.17474 9.25 2.63158 9.25 2.63158V4.21053H8.625V2.31579C8.625 2.13263 8.50625 2 8.3125 2H7.6875Z" fill="white"/>
</svg>
