<svg width="16" height="16" viewBox="0 0 16 16" fill="none" xmlns="http://www.w3.org/2000/svg">
<path d="M8 14C7.82292 14 7.67458 13.9394 7.555 13.8181C7.43542 13.6968 7.37542 13.5469 7.375 13.3684V12.1053H3.625C3.44792 12.1053 3.29959 12.0446 3.18 11.9234C3.06042 11.8021 3.00042 11.6522 3 11.4737C2.99959 11.2952 3.05959 11.1453 3.18 11.024C3.30042 10.9027 3.44875 10.8421 3.625 10.8421H12.375C12.5521 10.8421 12.7006 10.9027 12.8206 11.024C12.9406 11.1453 13.0004 11.2952 13 11.4737C12.9996 11.6522 12.9396 11.8023 12.82 11.924C12.7004 12.0457 12.5521 12.1061 12.375 12.1053H8.625V13.3684C8.625 13.5474 8.565 13.6975 8.445 13.8187C8.325 13.94 8.17667 14.0004 8 14ZM6.125 7.36842C6.30208 7.36842 6.45063 7.30779 6.57063 7.18652C6.69063 7.06526 6.75042 6.91537 6.75 6.73684C6.74958 6.55831 6.68958 6.40842 6.57 6.28716C6.45042 6.16589 6.30208 6.10526 6.125 6.10526C5.94792 6.10526 5.79958 6.16589 5.68 6.28716C5.56042 6.40842 5.50042 6.55831 5.5 6.73684C5.49958 6.91537 5.55958 7.06547 5.68 7.18716C5.80042 7.30884 5.94875 7.36926 6.125 7.36842ZM9.875 7.36842C10.0521 7.36842 10.2006 7.30779 10.3206 7.18652C10.4406 7.06526 10.5004 6.91537 10.5 6.73684C10.4996 6.55831 10.4396 6.40842 10.32 6.28716C10.2004 6.16589 10.0521 6.10526 9.875 6.10526C9.69792 6.10526 9.54958 6.16589 9.43 6.28716C9.31042 6.40842 9.25042 6.55831 9.25 6.73684C9.24958 6.91537 9.30958 7.06547 9.43 7.18716C9.55042 7.30884 9.69875 7.36926 9.875 7.36842ZM4.25 10.2105C4.07292 10.2105 3.92459 10.1499 3.805 10.0286C3.68542 9.90737 3.62542 9.75747 3.625 9.57895V5.7421C3.625 5.66842 3.63021 5.59747 3.64063 5.52926C3.65104 5.46105 3.66667 5.39516 3.6875 5.33158L4.53125 2.85263C4.61458 2.6 4.76563 2.39474 4.98438 2.23684C5.20313 2.07895 5.44792 2 5.71875 2H10.2812C10.5521 2 10.7969 2.07895 11.0156 2.23684C11.2344 2.39474 11.3854 2.6 11.4687 2.85263L12.3125 5.33158C12.3333 5.39474 12.349 5.46063 12.3594 5.52926C12.3698 5.59789 12.375 5.66884 12.375 5.7421V9.57895C12.375 9.75789 12.3152 9.908 12.1956 10.0293C12.076 10.1505 11.9275 10.2109 11.75 10.2105C11.5725 10.2101 11.4242 10.1495 11.305 10.0286C11.1858 9.90779 11.1258 9.75789 11.125 9.57895V8.94737H4.875V9.57895C4.875 9.75789 4.815 9.908 4.695 10.0293C4.575 10.1505 4.42667 10.2109 4.25 10.2105ZM5.28125 4.52632H10.7187L10.2812 3.26316H5.71875L5.28125 4.52632Z" fill="white"/>
</svg>
